<svg id="Capa_1" enable-background="new 0 0 512 512" height="512" viewBox="0 0 512 512" width="512" xmlns="http://www.w3.org/2000/svg"><g><g><g><path d="m401.94 504.5h-374.44c-11.046 0-20-8.954-20-20v-322.746h414.44v322.746c0 11.046-8.954 20-20 20z" fill="#b3e59f"/></g><g><path d="m65.06 388.605c0 24.813 20.187 45 45 45h311.88v-271.851h-356.88z" fill="#95d6a4"/></g><g><path d="m33.757 484.5v-322.746h-26.257v322.746c0 11.046 8.954 20 20 20h26.257c-11.045 0-20-8.954-20-20z" fill="#95d6a4"/></g><g><g><path d="m401.94 103.394h-374.44c-11.046 0-20 8.954-20 20v50.897h414.44v-50.897c0-11.045-8.954-20-20-20z" fill="#ffd064"/></g></g><g><g><path d="m401.94 103.394h-336.88v70.897h356.88v-50.897c0-11.045-8.954-20-20-20z" fill="#ebb044"/></g></g><g><g><path d="m53.757 103.394h-26.257c-11.046 0-20 8.954-20 20v50.896h26.257v-50.896c0-11.045 8.955-20 20-20z" fill="#ebb044"/></g></g><g><path d="m484.5 408.606h-374.44c-11.046 0-20-8.954-20-20v-322.746h414.44v322.746c0 11.045-8.954 20-20 20z" fill="#e8edf2"/></g><g><path d="m431.502 230.592h-268.444c-5.523 0-10-4.477-10-10v-93.202c0-5.523 4.477-10 10-10h268.443c5.523 0 10 4.477 10 10v93.202c.001 5.523-4.476 10-9.999 10z" fill="#9facba"/></g><g><g><g><path d="m249.504 357.993h-86.446c-5.523 0-10-4.477-10-10v-76.329c0-5.523 4.477-10 10-10h86.446c5.523 0 10 4.477 10 10v76.329c0 5.523-4.477 10-10 10z" fill="#dd636e"/></g></g></g><g><path d="m116.317 388.606v-322.746h-26.257v322.746c0 11.046 8.954 20 20 20h26.257c-11.045 0-20-8.955-20-20z" fill="#c5d3dd"/></g><g><g><g><path d="m484.5 7.5h-374.44c-11.046 0-20 8.954-20 20v50.897h414.44v-50.897c0-11.046-8.954-20-20-20z" fill="#90d8f9"/></g></g></g><g><g><g><path d="m136.317 7.5h-26.257c-11.046 0-20 8.954-20 20v50.896h26.257v-50.896c0-11.046 8.955-20 20-20z" fill="#75cef9"/></g></g></g><g><path d="m184.161 326.99v-34.322c0-3.719 3.916-6.136 7.24-4.47l34.241 17.161c3.68 1.844 3.68 7.096 0 8.94l-34.241 17.161c-3.325 1.666-7.24-.751-7.24-4.47z" fill="#e8edf2"/></g></g><g><path d="m421.94 439.14c-4.142 0-7.5 3.357-7.5 7.5v37.86c0 6.893-5.607 12.5-12.5 12.5h-374.44c-6.893 0-12.5-5.607-12.5-12.5v-302.709h41.44c4.142 0 7.5-3.357 7.5-7.5s-3.358-7.5-7.5-7.5h-41.44v-43.396c0-6.893 5.607-12.5 12.5-12.5h28.58c4.142 0 7.5-3.357 7.5-7.5s-3.358-7.5-7.5-7.5h-28.58c-15.164 0-27.5 12.337-27.5 27.5v361.105c0 15.164 12.336 27.5 27.5 27.5h374.44c15.164 0 27.5-12.336 27.5-27.5v-37.86c0-4.143-3.358-7.5-7.5-7.5z"/><path d="m45.153 133.516c-4.142 0-7.5 3.357-7.5 7.5s3.358 7.5 7.5 7.5h7.68c4.142 0 7.5-3.357 7.5-7.5s-3.358-7.5-7.5-7.5z"/><path d="m449.002 127.39c0-9.649-7.851-17.5-17.5-17.5h-268.444c-9.649 0-17.5 7.851-17.5 17.5v93.202c0 9.649 7.851 17.5 17.5 17.5h268.444c9.649 0 17.5-7.851 17.5-17.5zm-15 93.202c0 1.379-1.122 2.5-2.5 2.5h-268.444c-1.378 0-2.5-1.121-2.5-2.5v-93.202c0-1.379 1.122-2.5 2.5-2.5h268.444c1.378 0 2.5 1.121 2.5 2.5z"/><path d="m163.058 254.164c-9.649 0-17.5 7.851-17.5 17.5v76.329c0 9.649 7.851 17.5 17.5 17.5h86.446c9.649 0 17.5-7.851 17.5-17.5v-76.329c0-9.649-7.851-17.5-17.5-17.5zm88.946 17.5v76.329c0 1.379-1.122 2.5-2.5 2.5h-86.446c-1.378 0-2.5-1.121-2.5-2.5v-76.329c0-1.379 1.122-2.5 2.5-2.5h86.446c1.378 0 2.5 1.121 2.5 2.5z"/><path d="m484.5 0h-374.44c-15.164 0-27.5 12.337-27.5 27.5v361.105c0 15.164 12.336 27.5 27.5 27.5h374.44c15.164 0 27.5-12.336 27.5-27.5v-226.365c0-4.143-3.358-7.5-7.5-7.5s-7.5 3.357-7.5 7.5v226.365c0 6.893-5.607 12.5-12.5 12.5h-374.44c-6.893 0-12.5-5.607-12.5-12.5v-302.709h399.44v38.184c0 4.143 3.358 7.5 7.5 7.5s7.5-3.357 7.5-7.5v-96.58c0-15.163-12.336-27.5-27.5-27.5zm-386.94 27.5c0-6.893 5.607-12.5 12.5-12.5h374.44c6.893 0 12.5 5.607 12.5 12.5v43.396h-399.44z"/><path d="m135.393 37.621h-7.68c-4.142 0-7.5 3.357-7.5 7.5s3.358 7.5 7.5 7.5h7.68c4.142 0 7.5-3.357 7.5-7.5s-3.358-7.5-7.5-7.5z"/><path d="m172.836 37.621h-7.68c-4.142 0-7.5 3.357-7.5 7.5s3.358 7.5 7.5 7.5h7.68c4.142 0 7.5-3.357 7.5-7.5s-3.357-7.5-7.5-7.5z"/><path d="m210.28 37.621h-7.68c-4.142 0-7.5 3.357-7.5 7.5s3.358 7.5 7.5 7.5h7.68c4.142 0 7.5-3.357 7.5-7.5s-3.358-7.5-7.5-7.5z"/><path d="m263.718 192.757c-.014 0-.029 0-.043 0-3.722.021-7.649.036-10.884.042v-45.118c0-4.143-3.358-7.5-7.5-7.5s-7.5 3.357-7.5 7.5v52.576c0 3.653 2.633 6.775 6.234 7.393.536.092.909.155 6.8.155 2.829 0 6.932-.015 12.934-.048 4.142-.023 7.481-3.399 7.458-7.542-.023-4.128-3.376-7.458-7.499-7.458z"/><path d="m216.924 169.735c1.729-2.92 2.739-6.313 2.739-9.946 0-10.813-8.796-19.608-19.608-19.608h-15.285c-4.142 0-7.5 3.357-7.5 7.5v52.62c0 1.995.795 3.907 2.208 5.315 1.406 1.399 3.309 2.185 5.292 2.185h.033s14.049-.063 17.921-.063c11.945 0 21.664-9.718 21.664-21.663.001-6.516-2.896-12.366-7.464-16.34zm-16.868-14.554c2.541 0 4.608 2.067 4.608 4.608s-2.067 4.607-4.608 4.607c-1.141 0-3.307.006-5.657.015h-2.129v-9.23zm2.669 37.557c-1.944 0-6.443.016-10.455.031v-13.35c.718-.003 1.441-.005 2.148-.008h8.306c3.674 0 6.664 2.989 6.664 6.664.001 3.674-2.989 6.663-6.663 6.663z"/><path d="m409.79 166.491h-15.741c-4.142 0-7.5 3.357-7.5 7.5s3.358 7.5 7.5 7.5h7.247c-1.783 6.241-6.118 11.31-14.218 11.31-10.372 0-18.81-8.438-18.81-18.81s8.438-18.811 18.81-18.811c3.771 0 7.406 1.109 10.512 3.208 3.433 2.317 8.095 1.416 10.414-2.017 2.319-3.432 1.416-8.094-2.016-10.413-5.596-3.78-12.134-5.778-18.909-5.778-18.643 0-33.81 15.167-33.81 33.811 0 18.643 15.167 33.81 33.81 33.81 17.789 0 30.212-13.903 30.212-33.81-.001-4.142-3.359-7.5-7.501-7.5z"/><path d="m310.472 140.181c-18.643 0-33.81 15.167-33.81 33.811 0 18.643 15.167 33.81 33.81 33.81s33.81-15.167 33.81-33.81c0-18.644-15.167-33.811-33.81-33.811zm0 52.62c-10.372 0-18.81-8.438-18.81-18.81s8.438-18.811 18.81-18.811 18.81 8.438 18.81 18.811-8.438 18.81-18.81 18.81z"/><path d="m229.002 298.653-34.242-17.161c-3.902-1.958-8.452-1.755-12.167.539s-5.933 6.27-5.933 10.636v34.322c0 4.366 2.218 8.343 5.933 10.637 2.02 1.247 4.285 1.875 6.559 1.875 1.91 0 3.827-.443 5.608-1.336l34.243-17.162c4.255-2.133 6.898-6.416 6.897-11.176s-2.643-9.042-6.898-11.174zm-37.341 24.287v-26.224l26.162 13.111z"/><path d="m441.502 268.251h-151.593c-4.142 0-7.5 3.357-7.5 7.5s3.358 7.5 7.5 7.5h151.593c4.142 0 7.5-3.357 7.5-7.5s-3.358-7.5-7.5-7.5z"/><path d="m441.502 302.328h-151.593c-4.142 0-7.5 3.357-7.5 7.5s3.358 7.5 7.5 7.5h151.593c4.142 0 7.5-3.357 7.5-7.5s-3.358-7.5-7.5-7.5z"/><path d="m441.502 336.405h-151.593c-4.142 0-7.5 3.357-7.5 7.5s3.358 7.5 7.5 7.5h151.593c4.142 0 7.5-3.357 7.5-7.5s-3.358-7.5-7.5-7.5z"/></g></g></svg>