<svg enable-background="new 0 0 128 128" height="512" viewBox="0 0 128 128" width="512" xmlns="http://www.w3.org/2000/svg"><path d="m59 79.7c0-13.4-13.2-24.2-29.5-24.2s-29.5 10.8-29.5 24.2 13.2 23.8 29.5 23.8c1.4 0 2.8-.1 4.2-.3 6.1 4.8 12.3 6.4 12.4 6.3-2.2-2.2-3.5-5.1-4.3-7.8 10.2-3.9 17.2-12.2 17.2-22z" fill="#efc75e"/><path d="m35 75.5c-2.2 0-4 1.8-4 4s1.8 4 4 4 4-1.8 4-4-1.8-4-4-4zm-13 0c-2.2 0-4 1.8-4 4s1.8 4 4 4 4-1.8 4-4-1.8-4-4-4z" fill="#faeecf"/><path d="m85 88.6c-2.2 0-4.4-.1-6.5-.4-8.6 6.4-17 8.5-17.1 8.3 2.9-3 4.8-6.8 6-10.6-15-5.5-25.4-17.8-25.4-32.1 0-19.5 19.3-35.3 43-35.3s43 15.8 43 35.3-19.3 34.8-43 34.8z" fill="#26a6d1"/><path d="m85 47.5c-3.3 0-6 2.7-6 6s2.7 6 6 6 6-2.7 6-6-2.7-6-6-6zm18 0c-3.3 0-6 2.7-6 6s2.7 6 6 6 6-2.7 6-6-2.7-6-6-6zm-36 0c-3.3 0-6 2.7-6 6s2.7 6 6 6 6-2.7 6-6-2.7-6-6-6z" fill="#fff"/><path d="m71.3 83.9c-14.9-5.5-25.3-17.8-25.3-32.1 0-12.1 7.4-22.7 18.7-29.1-13.5 5.9-22.7 17.6-22.7 31.1 0 14.3 10.4 26.6 25.3 32.1-1.2 3.7-3 7.5-6 10.6.1.1 6.5-4.6 10-12.6z" fill="#2295bc"/><path d="m4 79.7c0-12.8 12.1-23.3 27.5-24.1l-2-.1c-16.3 0-29.5 10.8-29.5 24.2s13.2 23.8 29.5 23.8c.6 0 1.2 0 1.9-.1-15.3-.9-27.4-10.9-27.4-23.7z" fill="#dcb757"/></svg>