<?xml version="1.0" encoding="utf-8"?>
<!-- Generator: Adobe Illustrator 24.3.0, SVG Export Plug-In . SVG Version: 6.00 Build 0)  -->
<svg version="1.1" id="Layer_1" xmlns="http://www.w3.org/2000/svg" xmlns:xlink="http://www.w3.org/1999/xlink" x="0px" y="0px"
	 viewBox="0 0 512 512" style="enable-background:new 0 0 512 512;" xml:space="preserve">
<style type="text/css">
	.st0{fill-rule:evenodd;clip-rule:evenodd;fill:#0466C8;}
</style>
<path class="st0" d="M256,0c141.4,0,256,114.6,256,256S397.4,512,256,512S0,397.4,0,256S114.6,0,256,0z M418.5,355.2V165l-95.1,95.1
	L418.5,355.2z M113.8,359.1h284.4l-86.9-86.9l-33.1,33.1c-1.6,1.6-3.8,2.5-6,2.5h-32.2c-2.3,0-4.4-0.9-6.1-2.5l-33.1-33.1
	L113.8,359.1L113.8,359.1z M93.5,165v190.3l95.1-95.1L93.5,165z M406.4,152.9H105.6l137.8,137.8h25.1L406.4,152.9z"/>
</svg>
