<svg id="Capa_1" enable-background="new 0 0 512 512" height="512" viewBox="0 0 512 512" width="512" xmlns="http://www.w3.org/2000/svg"><g><g><g><path d="m373.859 360.433-116.909-61.465-116.91 61.465 22.339-130.166-94.6-92.197 130.723-18.999 58.448-119.071 58.447 119.07 130.723 18.999-94.6 92.197z" fill="#ffdf40"/></g></g><path d="m373.859 360.433-22.339-130.166 94.599-92.198-130.722-18.999-58.447-119.07v298.968z" fill="#ffbe40"/><g><path d="m511.95 392h-113.101l-43.799 120h156.9l-39.901-60z" fill="#e63a3a"/></g><g><path d="m115.05 392h-115l39.901 60-39.901 60h158.799z" fill="#f25a3c"/></g><g><path d="m292.65 422 45 90h17.401l39.804-60.007z" fill="#cc1f1f"/></g><g><path d="m119.045 451.993 39.804 60.007h17.401l45-90z" fill="#e63a3a"/></g><g><path d="m394.865 452h-275.83l-79.98-120h435.791z" fill="#ff7f40"/></g><path d="m256.95 452h137.915l79.98-120h-217.895z" fill="#f25a3c"/></g></svg>