<svg id="Layer_1" height="512" viewBox="0 0 256 256" width="512" xmlns="http://www.w3.org/2000/svg"><g><g><path d="m157.889 137.715h-59.779c-19.196 0-32.822-18.706-26.935-36.977l9.933-30.829h93.784l9.933 30.829c5.886 18.271-7.74 36.977-26.936 36.977z" fill="#7c3108"/></g><g><g><g><g><g><g><path d="m199.31 188.18v29.7c0 5.53-4.48 10-10 10h-122.62c-5.52 0-10-4.47-10-10v-29.7c0-22.09 17.91-40 40-40h62.62c22.09 0 40 17.91 40 40z" fill="#f79219"/></g><g><path d="m166.474 148.823c7.893 7.307 12.834 17.756 12.834 29.359v29.7c0 5.523-4.477 10-10 10h-112.616c0 5.523 4.477 10 10 10h122.616c5.523 0 10-4.477 10-10v-29.7c0-19.644-14.162-35.981-32.834-39.359z" fill="#ef7816"/></g></g><g><g><path d="m116.508 126.744v28.443c0 2.2.632 4.355 1.82 6.207 4.522 7.048 14.823 7.048 19.345 0 1.188-1.852 1.82-4.006 1.82-6.207v-28.442h-22.985z" fill="#fcc4ae"/></g><g><g><path d="m116.508 135.638c3.612 1.208 7.473 1.872 11.492 1.872s7.881-.664 11.493-1.873v-8.893h-22.985z" fill="#f2ad97"/></g><g><g><g><circle cx="91.844" cy="96.866" fill="#ffd2c0" r="11.646"/></g><g><circle cx="91.844" cy="96.866" fill="#f2ad97" r="6.692"/></g></g><g><g><circle cx="164.156" cy="96.866" fill="#ffd2c0" r="11.646"/></g><g><circle cx="164.156" cy="96.866" fill="#f2ad97" r="6.692"/></g></g></g><g><path d="m164.22 77.49v18.8c.121 20.132-16.752 36.391-36.22 36.22-19.468.17-36.341-16.087-36.22-36.22v-18.8c0-20 16.22-36.22 36.22-36.22 20.004-.006 36.214 16.224 36.22 36.22z" fill="#ffd2c0"/></g><g><path d="m91.78 77.489v9.666c14.114-9.422 23.143-25.497 23.087-43.122 0-.103-.001-.205-.002-.308-13.51 5.26-23.085 18.394-23.085 33.764z" fill="#f2ad97"/></g><g><path d="m150.988 49.501c5.142 6.254 8.231 14.26 8.231 22.988v18.801c0 20.003-16.216 36.219-36.219 36.219-8.728 0-16.735-3.089-22.988-8.231 6.643 8.078 16.713 13.231 27.988 13.231 20.003 0 36.219-16.216 36.219-36.219v-18.801c0-11.275-5.153-21.345-13.231-27.988z" fill="#fcc4ae"/></g><g><path d="m114.867 34.034c.061 19.232-10.695 36.619-27.07 45.529-3.464 1.885-7.717-.828-7.37-4.757 1.177-13.345 7.108-25.559 16.431-34.162 5.037-4.665 11.062-8.262 17.86-10.424.096 1.26.149 2.528.149 3.814z" fill="#7c3108"/></g><g><path d="m172.631 76.39c-30.362 15.674-68.533-2.216-75.774-35.746 5.009-4.639 10.994-8.222 17.746-10.387 28.227-9.163 56.357 12.318 60.643 41.029.309 2.075-.751 4.142-2.615 5.104z" fill="#8c3f0a"/></g><g><path d="m175.245 71.286c-4.286-28.71-32.416-50.192-60.643-41.029-6.752 2.165-12.737 5.748-17.746 10.387.186.863.394 1.716.62 2.558 2.265-1.161 4.643-2.149 7.125-2.945 27.671-8.983 55.249 11.484 60.362 39.341 2.594-.847 5.157-1.913 7.666-3.208 1.866-.962 2.926-3.029 2.616-5.104z" fill="#7c3108"/></g><g><path d="m175.245 71.286c-4.286-28.71-32.416-50.192-60.643-41.029-6.752 2.165-12.737 5.748-17.746 10.387.06.276.121.551.185.825 3.795-2.642 8.003-4.75 12.561-6.212 28.227-9.163 56.357 12.318 60.643 41.029.063.42.068.839.024 1.249.792-.36 1.58-.741 2.362-1.145 1.864-.962 2.924-3.029 2.614-5.104z" fill="#6d2e03"/></g><g><g><circle cx="110.979" cy="91.546" fill="#995222" r="4.388"/></g><g><circle cx="145.021" cy="91.546" fill="#995222" r="4.388"/></g></g></g><g><path d="m148.979 78.13c-7.46 0-14.66-1.63-21.41-4.85-6.489-3.09-12.319-7.64-16.88-13.13-.34-.42-.5-.94-.449-1.47.05-.53.3-1.01.71-1.35.819-.68 2.149-.55 2.819.26 8.71 10.51 21.54 16.54 35.2 16.54 2.6 0 5.18-.22 7.68-.67 1.101-.19 2.131.55 2.32 1.62.19 1.09-.53 2.13-1.62 2.32-2.74.49-5.549.73-8.37.73zm-41.299-23.83c-.71 0-1.37-.38-1.729-.99 0-.01 0-.01-.011-.01-.26-.47-.33-1-.189-1.52.14-.52.47-.95.939-1.21.931-.53 2.2-.18 2.73.74v.01c.26.46.33 1 .189 1.51-.14.52-.47.95-.939 1.21-.3.17-.64.26-.99.26z" fill="#995222"/></g></g><g><g><g><path d="m153.85 148.18-14.321-6.46v6.211l-11.529 17.966-11.529-17.967v-6.211l-14.312 6.46 18.335 49.766c2.571 6.979 12.441 6.979 15.013.001z" fill="#d1d3d4"/></g><g><path d="m102.16 148.18 10.793 29.276c.439 1.191 1.964 1.525 2.862.628l12.185-12.187-11.529-17.967v-6.21z" fill="#f1f2f2"/></g><g><path d="m153.85 148.18-10.802 29.276c-.439 1.191-1.964 1.525-2.862.628l-12.186-12.187 11.529-17.967v-6.21z" fill="#f1f2f2"/></g></g></g></g></g><g><g><g><path d="m91.78 83.195h5.197v3h-5.197z" fill="#ef7816"/></g></g><g><g><path d="m125.743 88.023-2.121-2.121c1.175-1.175 2.736-1.822 4.396-1.822s3.222.647 4.396 1.822l-2.121 2.121c-1.218-1.217-3.333-1.217-4.55 0z" fill="#ef7816"/></g></g><g><g><path d="m115.712 103.896h-9.466c-5.938 0-10.768-4.83-10.768-10.767v-8.435c0-3.033 2.468-5.5 5.5-5.5h20c3.032 0 5.5 2.467 5.5 5.5v8.435c.001 5.937-4.83 10.767-10.766 10.767zm-14.733-21.701c-1.379 0-2.5 1.122-2.5 2.5v8.435c0 4.283 3.484 7.767 7.768 7.767h9.466c4.282 0 7.767-3.484 7.767-7.767v-8.435c0-1.378-1.121-2.5-2.5-2.5z" fill="#f79219"/></g></g><g><g><path d="m159.021 83.195h5.197v3h-5.197z" fill="#ef7816"/></g></g><g><g><path d="m149.754 103.896h-9.466c-5.937 0-10.767-4.83-10.767-10.767v-8.435c0-3.033 2.468-5.5 5.5-5.5h20c3.032 0 5.5 2.467 5.5 5.5v8.435c0 5.937-4.83 10.767-10.767 10.767zm-14.733-21.701c-1.379 0-2.5 1.122-2.5 2.5v8.435c0 4.283 3.484 7.767 7.767 7.767h9.466c4.283 0 7.768-3.484 7.768-7.767v-8.435c0-1.378-1.121-2.5-2.5-2.5z" fill="#f79219"/></g></g></g><g><path d="m134.44 109.715c.996 0 1.751.93 1.521 1.9-.857 3.603-4.096 6.283-7.961 6.283s-7.104-2.68-7.961-6.283c-.23-.969.524-1.9 1.521-1.9z" fill="#e59076"/></g></g><g><g><g><g><path d="m180.262 175.752c5.586-3.543 12.225-5.574 19.342-5.516 19.416.158 35.299 16.165 35.312 35.582.014 20.087-16.606 36.296-36.843 35.612-18.549-.627-33.644-15.658-34.347-34.205-.287-7.58 1.798-14.656 5.57-20.549.342-.535.43-1.193.217-1.792l-3.521-9.867c-.573-1.607.978-3.159 2.585-2.585l9.9 3.532c.596.212 1.251.126 1.785-.212z" fill="#f1f2f2"/></g></g><g><path d="m221.818 178.331c5.049 6.148 8.093 13.991 8.098 22.487.014 20.087-16.606 36.296-36.843 35.612-8.047-.272-15.443-3.255-21.297-8.06 6.303 7.68 15.741 12.703 26.297 13.06 20.237.684 36.857-15.525 36.843-35.612-.007-11.018-5.125-20.938-13.098-27.487z" fill="#e6e7e8"/></g></g></g></g><g><g><g><g><path d="m194.46 227.514h6.264c1.309 0 2.37-1.061 2.37-2.37v-38.09c0-1.309-1.061-2.37-2.37-2.37h-6.264c-1.309 0-2.37 1.061-2.37 2.37v38.09c0 1.309 1.061 2.37 2.37 2.37z" fill="#e63950"/></g></g><g><path d="m196.409 214.551v-22.903c0-.534.433-.967.967-.967s.967.433.967.967v22.903c0 .534-.433.967-.967.967s-.967-.433-.967-.967z" fill="#e8566f"/></g></g><g><g><g><path d="m183.455 227.514h6.264c1.309 0 2.37-1.061 2.37-2.37v-38.09c0-1.309-1.061-2.37-2.37-2.37h-6.264c-1.309 0-2.37 1.061-2.37 2.37v38.09c-.001 1.309 1.061 2.37 2.37 2.37z" fill="#478cf7"/></g></g><g><path d="m185.62 212.784v-22.903c0-.534.433-.967.967-.967s.967.433.967.967v22.903c0 .534-.433.967-.967.967-.534-.001-.967-.433-.967-.967z" fill="#5e9cf7"/></g></g><g><g><g><g><path d="m212.294 227.48 6.175-1.057c1.29-.221 2.157-1.446 1.936-2.736l-6.429-37.544c-.221-1.29-1.446-2.157-2.736-1.936l-6.175 1.057c-1.29.221-2.157 1.446-1.936 2.736l6.429 37.544c.221 1.29 1.446 2.157 2.736 1.936z" fill="#58595b"/></g></g></g><g><path d="m212.038 219.454 4.003-.685c.526-.09 1.026.263 1.116.79.09.526-.263 1.026-.79 1.116l-4.003.685c-.526.09-1.026-.263-1.116-.79-.09-.526.264-1.025.79-1.116z" fill="#ffa91a"/></g><g><path d="m211.407 215.767 4.003-.685c.526-.09 1.026.263 1.116.79.09.526-.263 1.026-.79 1.116l-4.003.685c-.526.09-1.026-.263-1.116-.79-.09-.526.263-1.026.79-1.116z" fill="#ffa91a"/></g><g><path d="m207.22 191.319 4.003-.685c.526-.09 1.026.263 1.116.79.09.526-.263 1.026-.79 1.116l-4.003.685c-.526.09-1.026-.263-1.116-.79-.089-.526.264-1.026.79-1.116z" fill="#939598"/></g></g></g></g></svg>